# xmcd
#
# Track frame offsets: 
#        150
#        6004
#        26254
#        38748
#        53319
#        66865
#        84523
#        97487
#        113259
#        125193
#        140501
#        160777
#        172681
#        190061
#        205659
#        220346
#
# Disc length: 3010 seconds
#
# Revision: 0
# Processed by: cddbd v1.5.2PL0 Copyright (c) Steve Scherf et al.
# Submitted via: ExactAudioCopy v1.0b1
#
DISCID=ca0bc010
DTITLE=Gruby mielzky - Silny jak nigdy wkurwiony jak zwykle
DYEAR=2012
DGENRE=Hip-Hop
TTITLE0=
TTITLE1=Silny Jak Nigdy, Wkurwiony Jak Zwykle
TTITLE2=Żyje Normalnie
TTITLE3=Najlepszy Dzień
TTITLE4=Brat to brat, wróg to wróg
TTITLE5=HIP-HOP
TTITLE6=Gra zmienia w bestie
TTITLE7=Milczenie
TTITLE8=Nie Liczę Zysków, Strat
TTITLE9=X
TTITLE10=Wołam Cię
TTITLE11=Muggsy Bogues
TTITLE12=Nie sądzisz Mielzky
TTITLE13=Kocham
TTITLE14=Wstyd
TTITLE15=Do Codzienności Powrót
EXTD=
EXTT0=
EXTT1=
EXTT2=
EXTT3=
EXTT4=
EXTT5=
EXTT6=
EXTT7=
EXTT8=
EXTT9=
EXTT10=
EXTT11=
EXTT12=
EXTT13=
EXTT14=
EXTT15=
PLAYORDER=
